HIERARCHY
ROOT Hips
{
	OFFSET 0.00000 0.00000 0.00000
	CHANNELS 6 Xposition Yposition Zposition Yrotation Zrotation Xrotation 
	JOINT Lumbar
	{
		OFFSET 0 0 0
		CHANNELS 3 Zrotation Xrotation Yrotation
		JOINT Neck
		{
			OFFSET 0.00 0.2701 0.00
			CHANNELS 3 Zrotation Xrotation Yrotation
			End Site
			{
				OFFSET 0.00 0.1379 0.00
			}
		}
		JOINT RightShoulder
		{
			OFFSET 0.0119 0.2289 0.1181
			CHANNELS 3 Zrotation Xrotation Yrotation
			JOINT RightElbow
			{
				OFFSET 0.00 -0.1475 0.00
				CHANNELS 2 Zrotation Yrotation
				JOINT RightWrist
				{
					OFFSET 0.00 -0.1605 0.00
					CHANNELS 2 Zrotation Xrotation
					End Site
					{
						OFFSET 0.0040 -0.1068 0.0006
					}
				}
			}
		}
		JOINT LeftShoulder
		{
			OFFSET 0.0119 0.2289 -0.1181
			CHANNELS 3 Zrotation Xrotation Yrotation
			JOINT LeftElbow
			{
				OFFSET 0.00 -0.1475 0.00
				CHANNELS 2 Zrotation Yrotation
				JOINT LeftWrist
				{
					OFFSET 0.00 -0.1605 0.00
					CHANNELS 2 Zrotation Xrotation
					End Site
					{
						OFFSET 0.0040 -0.1068 -0.0006
					}
				}
			}
		}
	}
	JOINT RightHip
	{
		OFFSET 0.0316 -0.0424 0.0458
		CHANNELS 3 Zrotation Xrotation Yrotation
		JOINT RightKnee
		{
			OFFSET 0.00 -0.2438 0.00
			CHANNELS 1 Zrotation
			JOINT RightAnkle
			{
				OFFSET 0.00 -0.2449 0.00
				CHANNELS 3 Zrotation Xrotation Yrotation
				End Site
				{
					OFFSET 0.1237 -0.0542 0.0051
				}
			}
		}
	}
	JOINT LeftHip
	{
		OFFSET 0.0316 -0.0424 -0.0458
		CHANNELS 3 Zrotation Xrotation Yrotation
		JOINT LeftKnee
		{
			OFFSET 0.00 -0.2438 0.00
			CHANNELS 1 Zrotation
			JOINT LeftAnkle
			{
				OFFSET 0.00 -0.2449 0.00
				CHANNELS 3 Zrotation Xrotation Yrotation
				End Site
				{
					OFFSET 0.1237 -0.0542 -0.0051
				}
			}
		}
	}
}
MOTION
Frames: 17
Frame Time: 0.02
0.63744 0.44508 0.64099 891.2882 0 1.50054 -8.79243 -4.29015 -2.43053 -24.12963 18.59311 17.54383 27.48904 -43.77821 36.23601 130.76977 31.69397 -58.66206 1.53501 37.21461 -2.06561 -38.85702 92.80306 -163.53471 -75.65633 22.7154 65.86362 2.36515 -6.08237 -68.94974 -0.82902 -4.64936 -12.31833 64.42295 5.28711 7.19309 -70.50769 -1.82325 4.33439 14.08273
0.63741 0.44503 0.64098 891.29717 0 1.52343 -8.83882 -4.29984 -2.56522 -23.9462 18.66217 17.6317 26.93736 -43.89395 35.79881 130.77566 31.14893 -58.51815 1.66577 36.93879 -2.03262 -39.41192 92.93927 -163.56948 -75.08049 22.74573 65.87839 2.34369 -6.07286 -68.97601 -0.8289 -4.65415 -12.31567 64.42755 5.24215 7.17012 -70.51684 -1.82738 4.33792 14.11195
0.63743 0.44498 0.64098 891.31254 0 1.5512 -8.90887 -4.31415 -2.76318 -23.46318 18.78823 17.68993 26.10238 -43.98187 35.12671 130.76774 30.23681 -58.29225 1.88589 36.40597 -1.95079 -40.03987 93.17768 -163.54479 -73.71454 22.72575 65.89604 2.31399 -6.06112 -69.00005 -0.8271 -4.66087 -12.31018 64.43492 5.17004 7.12381 -70.51728 -1.84363 4.33535 14.16288
0.63742 0.44493 0.64097 891.32374 0 1.57534 -8.9642 -4.32516 -2.92334 -23.14727 18.88255 17.7639 25.43706 -44.07907 34.52508 130.75714 29.4399 -58.09782 2.08528 36.03043 -1.89226 -40.61856 93.36106 -163.54169 -72.70216 22.72423 65.91143 2.28972 -6.05135 -69.02377 -0.82621 -4.66635 -12.30594 64.44074 5.11354 7.08933 -70.52194 -1.85365 4.33566 14.20226
0.63741 0.44487 0.64097 891.33909 0 1.60499 -9.03417 -4.34119 -3.11883 -22.71209 18.99963 17.83103 24.61165 -44.1901 34.06827 130.78499 28.84904 -57.92696 2.20411 35.49388 -1.83434 -41.2601 93.58697 -163.56086 -71.70723 22.74108 65.93049 2.25972 -6.03741 -69.05301 -0.82487 -4.67335 -12.30214 64.44763 5.04476 7.05004 -70.52642 -1.86583 4.3357 14.24839
0.63742 0.44483 0.64097 891.34831 0 1.62517 -9.08036 -4.34832 -3.25841 -22.44856 19.08412 17.90434 24.04738 -44.26643 33.26234 130.73108 27.75324 -57.68898 2.50883 35.22578 -1.7615 -41.79253 93.74731 -163.52064 -70.49657 22.70852 65.94307 2.23831 -6.03139 -69.07088 -0.82372 -4.67773 -12.29654 64.45295 4.99368 7.01539 -70.52862 -1.8769 4.33472 14.28583
0.63744 0.44485 0.64095 891.33174 0 1.60922 -9.05154 -4.32384 -3.20822 -22.74715 19.05755 18.00159 24.27571 -44.24663 31.48832 130.43236 25.26903 -57.27266 3.32704 35.78753 -1.6598 -41.9742 93.68698 -163.32012 -68.80842 22.54287 65.93268 2.254 -6.05153 -69.04999 -0.82719 -4.67351 -12.2879 64.45396 5.00935 6.99516 -70.52978 -1.87963 4.33309 14.29305
0.63747 0.4449 0.64093 891.30989 0 1.58482 -8.99885 -4.29099 -3.10303 -23.22432 18.99761 18.10574 24.77436 -44.19413 29.38421 130.05595 22.30641 -56.79453 4.3244 36.62233 -1.5441 -42.04962 93.55852 -163.06382 -66.94427 22.33077 65.91632 2.27694 -6.07919 -69.01884 -0.83042 -4.66673 -12.27736 64.45325 5.04209 6.9809 -70.52845 -1.88126 4.33051 14.29094
0.63749 0.44492 0.64091 891.29577 0 1.57045 -8.95975 -4.26613 -3.03677 -23.60899 18.95793 18.20664 25.14616 -44.16132 27.47025 129.72902 19.61734 -56.35249 5.22581 37.31436 -1.43361 -42.19481 93.47004 -162.84014 -65.20978 22.14577 65.90573 2.28841 -6.10084 -68.99788 -0.83117 -4.66176 -12.26681 64.45284 5.05897 6.96672 -70.52591 -1.88516 4.32783 14.29375
0.63751 0.44497 0.64089 891.26078 0 1.53155 -8.91006 -4.22495 -2.91558 -24.03259 18.89914 18.30721 25.52559 -44.10734 25.37316 129.34054 16.67493 -55.87159 6.19399 38.07695 -1.32575 -42.25227 93.34817 -162.58383 -63.23806 21.9339 65.88297 2.33205 -6.13285 -68.95473 -0.84213 -4.65424 -12.25962 64.45434 5.10714 6.94065 -70.53224 -1.88244 4.32707 14.29455
0.63755 0.44498 0.64087 891.26616 0 1.53986 -8.87623 -4.21424 -2.89276 -24.41973 18.87094 18.41029 25.95646 -44.08979 23.58897 129.06361 14.15574 -55.46085 7.06162 38.76009 -1.21047 -42.46572 93.2771 -162.38283 -61.72888 21.76743 65.88332 2.31309 -6.14575 -68.95385 -0.83261 -4.65125 -12.24527 64.4517 5.09702 6.94017 -70.52052 -1.89251 4.32231 14.29694
0.6376 0.44484 0.64087 891.39959 0 1.69664 -8.89384 -4.30252 -3.17354 -24.67758 18.94 18.51987 26.46801 -44.18294 22.69235 129.09941 12.88798 -55.23481 7.63115 39.16291 -1.07166 -43.1395 93.37252 -162.35053 -61.54646 21.73964 65.9558 2.09697 -6.09811 -69.08571 -0.75954 -4.66259 -12.20961 64.43557 4.90031 7.01674 -70.45171 -1.94324 4.30542 14.30678
0.63766 0.44466 0.64086 891.57119 0 1.89845 -8.92778 -4.41957 -3.55152 -24.89125 19.03985 18.63147 27.02203 -44.31348 22.13332 129.25264 12.07148 -55.08622 8.08829 39.47626 -0.9274 -43.97225 93.51903 -162.37592 -61.83947 21.75919 66.05054 1.82154 -6.03196 -69.25816 -0.66711 -4.67833 -12.16722 64.41572 4.64818 7.11763 -70.3662 -2.00595 4.28482 14.31829
0.63771 0.44451 0.64086 891.71498 0 2.06879 -8.95295 -4.51471 -3.87245 -25.1167 19.12226 18.74169 27.55548 -44.42583 21.4592 129.36186 11.07203 -54.91872 8.5813 39.82828 -0.78996 -44.73032 93.63549 -162.37343 -61.91319 21.75578 66.1305 1.58846 -5.97829 -69.40296 -0.58831 -4.69122 -12.12922 64.39923 4.436 7.20216 -70.29372 -2.0597 4.26683 14.32844
0.63777 0.44433 0.64086 891.90182 0 2.28427 -8.98301 -4.64591 -4.24555 -25.38317 19.21804 18.85481 28.10549 -44.54262 20.61399 129.42985 9.95993 -54.68116 9.14554 40.19906 -0.63319 -45.49766 93.77883 -162.37511 -61.98942 21.75609 66.2296 1.29191 -5.90818 -69.58548 -0.4895 -4.70757 -12.08547 64.37587 4.16334 7.30876 -70.19872 -2.12794 4.24492 14.34083
0.63782 0.44419 0.64085 892.00929 0 2.41781 -9.00707 -4.71015 -4.53416 -25.5515 19.29377 18.96138 28.62516 -44.65877 20.20661 129.61138 9.1988 -54.60757 9.53147 40.50473 -0.51616 -46.2815 93.87872 -162.38362 -62.18131 21.76144 66.29464 1.1118 -5.86722 -69.70018 -0.4273 -4.71786 -12.05219 64.36566 4.00167 7.37576 -70.14601 -2.16925 4.23028 14.34906
0.63786 0.4442 0.64084 891.87808 0 2.30311 -9.01075 -4.572 -4.56243 -25.4582 19.30618 19.05707 29.07064 -44.77034 20.95442 130.0891 9.27591 -54.97853 9.4591 40.66205 -0.50528 -47.10108 93.85058 -162.38767 -62.52959 21.76111 66.2563 1.28144 -5.91647 -69.60927 -0.47486 -4.70963 -12.0491 64.39528 4.17376 7.3218 -70.22009 -2.12978 4.23702 14.34555
